<svg xmlns="http://www.w3.org/2000/svg" xmlns:xlink="http://www.w3.org/1999/xlink" width="2000" zoomAndPan="magnify" viewBox="0 0 1500 1499.999933" height="2000" preserveAspectRatio="xMidYMid meet" version="1.0"><path fill="#ffffff" d="M 1258.0625 725.804688 L 1258.0625 678.96875 C 1258.0625 644.394531 1270.960938 612.433594 1293.433594 591.265625 C 1347.824219 540.074219 1379.03125 467.539062 1379.03125 392.25 C 1379.03125 314.105469 1345.933594 239.710938 1288.257812 188.152344 C 1231.402344 137.371094 1158.484375 114.144531 1082.613281 122.660156 C 958.816406 136.644531 860.203125 238.597656 848.105469 365.105469 C 840 449.878906 870.167969 531.796875 930.894531 589.863281 C 954.289062 612.265625 967.742188 644.683594 967.742188 678.871094 L 967.742188 725.804688 C 967.742188 739.160156 978.582031 750 991.933594 750 L 1233.871094 750 C 1247.226562 750 1258.0625 739.160156 1258.0625 725.804688 Z M 1209.675781 701.613281 L 1016.128906 701.613281 L 1016.128906 678.871094 C 1016.128906 631.546875 997.234375 586.355469 964.304688 554.878906 C 914.371094 507.144531 889.546875 439.667969 896.25 369.726562 C 906.195312 265.886719 986.832031 182.203125 1088.03125 170.757812 C 1149.945312 163.839844 1209.582031 182.78125 1256.007812 224.25 C 1303.425781 266.636719 1330.644531 327.847656 1330.644531 392.25 C 1330.644531 454.234375 1305 513.945312 1260.265625 556.0625 C 1228.113281 586.304688 1209.675781 631.113281 1209.675781 678.96875 Z M 1209.675781 701.613281 " fill-opacity="1" fill-rule="nonzero"/><path fill="#ffffff" d="M 991.933594 774.195312 L 1233.871094 774.195312 L 1233.871094 822.582031 L 991.933594 822.582031 Z M 991.933594 774.195312 " fill-opacity="1" fill-rule="nonzero"/><path fill="#ffffff" d="M 1230.484375 885.046875 L 1232.613281 878.636719 C 1235.082031 871.257812 1233.824219 863.152344 1229.273438 856.839844 C 1224.75 850.5 1217.445312 846.773438 1209.675781 846.773438 L 1016.128906 846.773438 C 1008.363281 846.773438 1001.054688 850.5 996.507812 856.839844 C 991.960938 863.152344 990.726562 871.257812 993.167969 878.636719 L 995.296875 885.046875 C 1011.796875 934.5 1057.933594 967.742188 1110.074219 967.742188 L 1115.734375 967.742188 C 1167.871094 967.742188 1214.007812 934.5 1230.484375 885.046875 Z M 1115.734375 919.355469 L 1110.074219 919.355469 C 1088.902344 919.355469 1069.425781 910.234375 1055.953125 895.160156 L 1169.855469 895.160156 C 1156.378906 910.234375 1136.902344 919.355469 1115.734375 919.355469 Z M 1115.734375 919.355469 " fill-opacity="1" fill-rule="nonzero"/><path fill="#ffffff" d="M 725.804688 338.710938 L 798.386719 338.710938 L 798.386719 387.097656 L 725.804688 387.097656 Z M 725.804688 338.710938 " fill-opacity="1" fill-rule="nonzero"/><path fill="#ffffff" d="M 1427.417969 338.710938 L 1500 338.710938 L 1500 387.097656 L 1427.417969 387.097656 Z M 1427.417969 338.710938 " fill-opacity="1" fill-rule="nonzero"/><path fill="#ffffff" d="M 822.0625 106.300781 L 856.273438 72.085938 L 907.597656 123.40625 L 873.382812 157.621094 Z M 822.0625 106.300781 " fill-opacity="1" fill-rule="nonzero"/><path fill="#ffffff" d="M 1318.175781 123.410156 L 1369.496094 72.085938 L 1403.710938 106.300781 L 1352.390625 157.621094 Z M 1318.175781 123.410156 " fill-opacity="1" fill-rule="nonzero"/><path fill="#ffffff" d="M 1088.710938 0 L 1137.097656 0 L 1137.097656 72.582031 L 1088.710938 72.582031 Z M 1088.710938 0 " fill-opacity="1" fill-rule="nonzero"/><path fill="#ffffff" d="M 61.304688 1499.175781 C 63.386719 1499.734375 65.492188 1500 67.574219 1500 C 74.394531 1500 81.023438 1497.097656 85.667969 1491.871094 L 229.257812 1329.96875 C 231.75 1327.160156 233.566406 1323.796875 234.53125 1320.167969 L 384.796875 759.289062 C 402.074219 694.863281 363.703125 628.402344 299.273438 611.128906 C 234.773438 593.878906 168.386719 632.25 151.113281 696.675781 L 0.824219 1257.554688 C -0.167969 1261.183594 -0.265625 1264.984375 0.484375 1268.660156 L 43.863281 1480.667969 C 45.703125 1489.644531 52.453125 1496.804688 61.304688 1499.175781 Z M 167.082031 1327.136719 L 149.128906 1347.386719 L 61.160156 1323.824219 L 55.742188 1297.304688 Z M 81.582031 1423.546875 L 72.023438 1376.804688 L 113.25 1387.863281 Z M 194.03125 1284.265625 L 147.289062 1271.734375 L 272.515625 804.339844 L 319.257812 816.871094 Z M 286.742188 657.871094 C 325.402344 668.226562 348.410156 708.121094 338.054688 746.757812 L 331.789062 770.128906 L 191.566406 732.582031 L 197.832031 709.210938 C 208.210938 670.546875 248.082031 647.539062 286.742188 657.871094 Z M 179.054688 779.296875 L 225.796875 791.832031 L 100.574219 1259.226562 L 53.832031 1246.695312 Z M 179.054688 779.296875 " fill-opacity="1" fill-rule="nonzero"/><path fill="#ffffff" d="M 1137.097656 1185.484375 L 1137.097656 1112.902344 L 1088.710938 1112.902344 L 1088.710938 1185.484375 C 1088.710938 1278.871094 1012.742188 1354.839844 919.355469 1354.839844 L 870.96875 1354.839844 C 777.582031 1354.839844 701.613281 1278.871094 701.613281 1185.484375 L 701.613281 750 C 701.613281 629.953125 603.917969 532.257812 483.871094 532.257812 L 459.675781 532.257812 L 459.675781 580.644531 L 483.871094 580.644531 C 577.257812 580.644531 653.226562 656.613281 653.226562 750 L 653.226562 1185.484375 C 653.226562 1305.53125 750.917969 1403.226562 870.96875 1403.226562 L 919.355469 1403.226562 C 1039.402344 1403.226562 1137.097656 1305.53125 1137.097656 1185.484375 Z M 1137.097656 1185.484375 " fill-opacity="1" fill-rule="nonzero"/><path fill="#ffffff" d="M 1088.710938 1016.128906 L 1137.097656 1016.128906 L 1137.097656 1064.515625 L 1088.710938 1064.515625 Z M 1088.710938 1016.128906 " fill-opacity="1" fill-rule="nonzero"/><path fill="#ffffff" d="M 1237.523438 334.621094 L 1166.710938 323.804688 L 1134.824219 255.847656 C 1130.832031 247.355469 1122.289062 241.933594 1112.902344 241.933594 C 1103.515625 241.933594 1094.976562 247.355469 1091.007812 255.847656 L 1059.121094 323.804688 L 988.304688 334.621094 C 979.332031 336 971.902344 342.265625 969.023438 350.855469 C 966.144531 359.445312 968.324219 368.953125 974.636719 375.433594 L 1026.582031 428.683594 L 1014.265625 504.167969 C 1012.765625 513.316406 1016.636719 522.507812 1024.210938 527.855469 C 1031.78125 533.203125 1041.75 533.710938 1049.855469 529.257812 L 1112.902344 494.394531 L 1175.953125 529.234375 C 1179.628906 531.242188 1183.644531 532.257812 1187.660156 532.257812 C 1192.546875 532.257812 1197.433594 530.757812 1201.597656 527.832031 C 1209.167969 522.484375 1213.039062 513.289062 1211.539062 504.144531 L 1199.226562 428.660156 L 1251.167969 375.410156 C 1257.507812 368.925781 1259.683594 359.445312 1256.78125 350.832031 C 1253.878906 342.21875 1246.476562 336 1237.523438 334.621094 Z M 1156.0625 403.644531 C 1150.695312 409.136719 1148.273438 416.855469 1149.507812 424.425781 L 1155.773438 462.796875 L 1124.613281 445.574219 C 1120.960938 443.5625 1116.945312 442.546875 1112.902344 442.546875 C 1108.863281 442.546875 1104.847656 443.5625 1101.195312 445.574219 L 1070.03125 462.796875 L 1076.296875 424.425781 C 1077.53125 416.855469 1075.113281 409.136719 1069.742188 403.644531 L 1042.136719 375.363281 L 1079.175781 369.703125 C 1087.160156 368.46875 1094.007812 363.363281 1097.417969 356.054688 L 1112.902344 323.082031 L 1128.386719 356.054688 C 1131.824219 363.363281 1138.667969 368.46875 1146.628906 369.703125 L 1183.667969 375.363281 Z M 1156.0625 403.644531 " fill-opacity="1" fill-rule="nonzero"/><path fill="#ffffff" d="M 362.902344 532.257812 L 411.289062 532.257812 L 411.289062 580.644531 L 362.902344 580.644531 Z M 362.902344 532.257812 " fill-opacity="1" fill-rule="nonzero"/></svg>