<svg xmlns="http://www.w3.org/2000/svg" xmlns:xlink="http://www.w3.org/1999/xlink" width="2000" zoomAndPan="magnify" viewBox="0 0 1500 1499.999933" height="2000" preserveAspectRatio="xMidYMid meet" version="1.0"><defs><clipPath id="ac8d430694"><path d="M 0 99.375 L 1500 99.375 L 1500 1350.375 L 0 1350.375 Z M 0 99.375 " clip-rule="nonzero"/></clipPath></defs><rect x="-150" width="1800" fill="#ffffff" y="-149.999993" height="1799.99992" fill-opacity="1"/><rect x="-150" width="1800" fill="#ffffff" y="-149.999993" height="1799.99992" fill-opacity="1"/><path fill="#000000" d="M 146.667969 203.050781 C 126.667969 203.050781 111.667969 218.054688 111.667969 238.0625 C 111.667969 258.070312 128.332031 273.074219 146.667969 273.074219 C 166.667969 273.074219 181.667969 258.070312 181.667969 238.0625 C 181.667969 218.054688 166.667969 203.050781 146.667969 203.050781 Z M 146.667969 203.050781 " fill-opacity="1" fill-rule="nonzero"/><path fill="#000000" d="M 243.332031 203.050781 C 223.332031 203.050781 208.332031 218.054688 208.332031 238.0625 C 208.332031 258.070312 223.332031 273.074219 243.332031 273.074219 C 263.332031 273.074219 278.332031 258.070312 278.332031 238.0625 C 278.332031 218.054688 263.332031 203.050781 243.332031 203.050781 Z M 243.332031 203.050781 " fill-opacity="1" fill-rule="nonzero"/><path fill="#000000" d="M 816.667969 1119.992188 C 830 1148.335938 863.332031 1161.671875 891.667969 1150.003906 C 920 1138.332031 933.332031 1103.320312 921.667969 1074.980469 L 828.332031 863.25 L 1013.332031 868.25 L 601.667969 486.46875 L 598.332031 1048.304688 L 725 909.929688 Z M 816.667969 1119.992188 " fill-opacity="1" fill-rule="nonzero"/><g clip-path="url(#ac8d430694)"><path fill="#000000" d="M 1400 99.6875 L 100 99.6875 C 45 99.6875 0 144.699219 0 199.71875 L 0 1250.03125 C 0 1305.050781 45 1350.0625 100 1350.0625 L 1400 1350.0625 C 1455 1350.0625 1500 1305.050781 1500 1250.03125 L 1500 199.71875 C 1500 144.699219 1455 99.6875 1400 99.6875 Z M 1433.332031 1250.03125 C 1433.332031 1268.371094 1418.332031 1283.375 1400 1283.375 L 100 1283.375 C 81.667969 1283.375 66.667969 1268.371094 66.667969 1250.03125 L 66.667969 368.101562 L 1433.332031 368.101562 Z M 1433.332031 301.414062 L 66.667969 301.414062 L 66.667969 199.71875 C 66.667969 181.378906 81.667969 166.375 100 166.375 L 1400 166.375 C 1418.332031 166.375 1433.332031 181.378906 1433.332031 199.71875 Z M 1433.332031 301.414062 " fill-opacity="1" fill-rule="nonzero"/></g><path fill="#000000" d="M 340 203.050781 C 320 203.050781 305 218.054688 305 238.0625 C 305 258.070312 320 273.074219 340 273.074219 C 360 273.074219 375 258.070312 375 238.0625 C 375 218.054688 360 203.050781 340 203.050781 Z M 340 203.050781 " fill-opacity="1" fill-rule="nonzero"/><path fill="#000000" d="M 146.667969 273.074219 C 128.332031 273.074219 111.667969 258.070312 111.667969 238.0625 C 111.667969 218.054688 126.667969 203.050781 146.667969 203.050781 C 166.667969 203.050781 181.667969 218.054688 181.667969 238.0625 C 181.667969 258.070312 166.667969 273.074219 146.667969 273.074219 Z M 243.332031 273.074219 C 223.332031 273.074219 208.332031 258.070312 208.332031 238.0625 C 208.332031 218.054688 223.332031 203.050781 243.332031 203.050781 C 263.332031 203.050781 278.332031 218.054688 278.332031 238.0625 C 278.332031 258.070312 263.332031 273.074219 243.332031 273.074219 Z M 340 273.074219 C 320 273.074219 305 258.070312 305 238.0625 C 305 218.054688 320 203.050781 340 203.050781 C 360 203.050781 375 218.054688 375 238.0625 C 375 258.070312 360 273.074219 340 273.074219 Z M 340 273.074219 " fill-opacity="1" fill-rule="nonzero"/></svg>