<?xml version="1.0"?>
<svg xmlns="http://www.w3.org/2000/svg" width="101" height="129" viewBox="0 0 101 129" fill="none">
<g clip-path="url(#clip0_1535_3141)">
<path d="M81.7177 15.4727L54.143 8.0841C48.7167 6.63013 43.1101 9.86711 41.6561 15.2934L31.6287 52.7162C30.1748 58.1425 33.4117 63.7491 38.838 65.203L66.4127 72.5916C71.839 74.0456 77.4456 70.8086 78.8996 65.3823L88.927 27.9596C90.3809 22.5333 87.144 16.9267 81.7177 15.4727ZM53.4738 18.4599L77.1093 24.793C78.1926 25.0833 78.8414 26.2071 78.5511 27.2904C78.2609 28.3737 77.137 29.0225 76.0537 28.7323L52.4183 22.3992C51.335 22.1089 50.6862 20.9851 50.9765 19.9018C51.2667 18.8185 52.3906 18.1697 53.4738 18.4599ZM50.8351 28.308L62.6528 31.4746C63.7361 31.7649 64.3849 32.8887 64.0946 33.972C63.8044 35.0553 62.6805 35.7041 61.5973 35.4138L49.7795 32.2473C48.6962 31.957 48.0474 30.8332 48.3377 29.7499C48.6279 28.6666 49.7518 28.0178 50.8351 28.308ZM69.0671 61.2278C65.9605 61.3981 63.5293 61.2533 61.7271 60.7704C59.7969 60.2532 58.583 59.3474 58.0067 58.0319C57.6923 57.3144 57.6301 56.6011 57.7281 55.9202L52.1317 56.6372C51.1602 56.7569 50.2303 56.1699 49.9346 55.2252C49.6389 54.2804 50.0591 53.2636 50.9299 52.8108C52.6365 51.9171 55.978 48.0732 56.1459 46.6193L56.0573 46.5956C53.9597 46.0335 48.4576 50.259 44.6361 54.5549C43.8825 55.3979 42.5978 55.4653 41.7521 54.7215C40.9163 53.9804 40.839 52.693 41.5828 51.8474C43.1835 50.0491 51.4403 41.1364 57.1128 42.6563C58.8953 43.134 60.0176 44.3424 60.2002 45.9852C60.4068 47.8138 59.3003 49.9344 57.8519 51.7946L61.0889 51.3742C61.9612 51.2702 62.8091 51.7296 63.1891 52.5175C63.5664 53.3152 63.3972 54.2621 62.7686 54.8747C62.2985 55.3293 61.826 56.0682 61.7757 56.4136C62.0171 56.6155 63.3756 57.4545 68.829 57.153C69.9652 57.0881 70.9178 57.9449 70.9854 59.0713C71.053 60.1978 70.1837 61.1575 69.0671 61.2278Z" fill="black"/>
</g>
<g clip-path="url(#clip1_1535_3141)">
<path d="M47.4744 63.5401L46.5524 63.7872L45.8112 61.021C45.5394 60.0067 44.4872 59.3992 43.4729 59.671C42.4586 59.9428 41.8511 60.995 42.1229 62.0093L42.8641 64.7755L20.7344 70.7051L19.9932 67.9389C19.7214 66.9246 18.6692 66.3171 17.6549 66.5889C16.6406 66.8607 16.0331 67.9129 16.3049 68.9272L17.0461 71.6934L16.124 71.9405C11.0434 73.3018 8.01265 78.5512 9.37399 83.6319L18.0214 115.904C19.3827 120.985 24.6322 124.016 29.7128 122.654L61.0632 114.254C66.1438 112.893 69.1746 107.643 67.8132 102.563L59.1658 70.2902C57.8045 65.2096 52.5551 62.1788 47.4744 63.5401ZM64.125 103.551C64.9427 106.603 63.127 109.748 60.0749 110.566L28.7245 118.966C25.6724 119.784 22.5275 117.968 21.7097 114.916L15.533 91.8643L57.9482 80.4991L64.125 103.551Z" fill="black"/>
<path d="M29.0844 112.94L40.1492 109.975C41.1635 109.704 41.771 108.651 41.4992 107.637C41.2275 106.623 40.1752 106.015 39.161 106.287L28.0961 109.252C27.0818 109.524 26.4743 110.576 26.7461 111.59C27.0179 112.605 28.0701 113.212 29.0844 112.94Z" fill="black"/>
</g>
<defs>
<clipPath id="clip0_1535_3141">
<rect width="65.2512" height="65.2512" fill="white" transform="translate(37.209 0.378906) rotate(15)"/>
</clipPath>
<clipPath id="clip1_1535_3141">
<rect width="61.0943" height="61.0943" fill="white" transform="translate(0.5625 69.1914) rotate(-15)"/>
</clipPath>
</defs>
</svg>
