<?xml version="1.0" encoding="UTF-8"?>
<svg id="Camada_2" xmlns="http://www.w3.org/2000/svg" viewBox="0 0 57.49 91.79">
  <g id="Camada_1-2" data-name="Camada_1">
    <g>
      <path d="M57.31,58.1l-.49-58.1-26.58.22.77,91.44,14.42-.12c7.81-.07,12.12-4.73,12.06-12.03l-.15-18.07-3.5.03c2.33-.8,3.48-2.05,3.47-3.37ZM41.5,4.33l3.89-.03.46,55.26c0,.27-.23.51-.7.51l-3.19.03-.47-55.77ZM46.02,79.61c0,.74-.22,1.44-.69,1.44l-3.19.03-.11-12.9,3.89-.03.1,11.46Z"/>
      <path d="M.28,33.57l-.28,58.1,26.58.13L27.02.35l-14.42-.07C4.79.24.42,4.85.38,12.15l-.09,18.07,3.5.02c-2.34.77-3.51,2-3.51,3.33ZM15.37,87.54l-3.89-.02.27-55.26c0-.27.24-.5.7-.5l3.19.02-.27,55.77ZM11.85,12.21c0-.74.24-1.44.71-1.43l3.19.02-.06,12.9-3.89-.02.06-11.46Z"/>
    </g>
  </g>
</svg>