<?xml version="1.0" encoding="UTF-8"?>
<svg id="Camada_2" xmlns="http://www.w3.org/2000/svg" viewBox="0 0 102.91 90.78">
  <g id="Camada_1-2" data-name="Camada_1">
    <g>
      <g>
        <path d="M12.45,26.72V.02H.23v42.03h6.63c3.59,0,5.59-2.13,5.59-5.48v-8.31h-1.61c1.07-.36,1.61-.93,1.61-1.54ZM5.39,1.95h1.79v25.4c0,.13-.11.23-.32.23h-1.46V1.95ZM7.18,36.57c0,.34-.11.66-.32.66h-1.46v-5.93h1.79v5.27Z"/>
        <path d="M21.09.02v37.21h-1.8V.02h-5.16v42.03h12.24V.02h-5.27Z"/>
        <path d="M35,28.71V5.91h-1.8v24.6h6.95v6.06c0,3.36-2.02,5.48-5.72,5.48h-6.38v-4.93h6.38c.34,0,.45-.21.45-.55v-1.23h-6.82V4.91c.02-.32.27-2.75,2.36-4.11C31.51.09,32.64.02,33.19.02h6.95v28.69h-5.14Z"/>
        <path d="M41.82,42.05V0h5.49v42.04h-5.49Z"/>
        <path d="M49.1,0v42.05h5.16V4.82h1.79v37.23h5.27V0h-12.22Z"/>
        <polygon points="70.08 28.71 70.08 5.91 68.28 5.91 68.28 30.51 75.22 30.51 75.22 35.33 68.28 35.33 68.28 37.12 75.22 37.12 75.22 42.05 63.13 42.05 63.13 .02 75.22 .02 75.22 28.71 70.08 28.71"/>
        <path d="M83.85,28.71V5.91h-1.8v24.6h6.95v6.06c0,3.36-2.02,5.48-5.72,5.48h-6.38v-4.93h6.38c.34,0,.45-.21.45-.55v-1.23h-6.82V4.91c.04-.32.29-2.75,2.36-4.11,1.13-.71,2.25-.79,2.79-.79h6.95v28.69h-5.14Z"/>
        <path d="M97.54,28.71V5.91h-1.8v24.6h6.95v6.06c0,3.36-2.02,5.48-5.72,5.48h-6.38v-4.93h6.38c.34,0,.45-.21.45-.55v-1.23h-6.82V4.91c.02-.34.27-2.77,2.36-4.11,1.13-.71,2.25-.79,2.79-.79h6.95v28.69h-5.14Z"/>
      </g>
      <g>
        <path d="M46.91,56.23v28.65h1.79v-26.87h5.16c-.04,9.45-.05,18.92-.09,28.37-.09.52-.39,1.68-1.39,2.73-1.43,1.5-3.25,1.64-3.68,1.66h-6.95v-42.07h5.16v2.7h6.95v4.82h-6.95Z"/>
        <path d="M73.26,85.81c1.23-.89,1.79-2.47,1.79-4.25v-29.92l-.02-2.93h-5.25l-1.79.02c-.2,0-.41.02-.59.05-.36.04-.7.11-1.02.21-.16.04-.32.09-.46.16-.16.05-.3.13-.45.2-.14.07-.29.16-.41.23-.29.18-.54.39-.77.63-.09.09-.18.18-.25.29-.05.07-.13.14-.18.21-.09.13-.16.25-.23.38-.27.43-.46.91-.59,1.45-.05.16-.09.34-.11.52-.04.21-.05.41-.07.63l-.04.04v37.03h12.56v-4.93h-2.13ZM69.78,85.81c0,.23-.11.57-.34.57h-1.45v-31.76h.02v-.41c0-.34.21-.68.45-.68h1.32v32.28Z"/>
        <path d="M12.22,75.43v-26.71H0v42.03h6.63c3.59,0,5.59-2.13,5.59-5.48v-8.31h-1.61c1.07-.36,1.61-.93,1.61-1.54ZM5.16,50.65h1.79v25.4c0,.13-.11.21-.32.21h-1.46v-25.62ZM6.95,85.27c0,.34-.11.66-.32.66h-1.46v-5.93h1.79v5.27Z"/>
        <path d="M19.35,48.71c-.11,0-.23,0-.34.02-3.38.13-5.16,2.22-5.16,5.47v36.55h6.72c.11,0,.23,0,.34-.02,3.38-.13,5.16-2.22,5.16-5.47v-36.55h-6.72ZM20.79,85.26c0,.34-.11.68-.34.68h-1.34v-31.74c0-.34.11-.68.34-.68h1.34v31.74Z"/>
        <path d="M34.7,48.73v37.21h-1.8v-37.21h-5.16v42.03h12.24v-42.03h-5.27Z"/>
        <path d="M55.65,90.76v-42.04h5.49v42.04h-5.49Z"/>
        <path d="M83.68,48.73v37.21h-1.8v-37.21h-5.16v42.03h12.24v-42.03h-5.27Z"/>
        <polygon points="97.77 77.41 97.77 54.62 95.96 54.62 95.96 79.22 102.91 79.22 102.91 84.04 95.96 84.04 95.96 85.83 102.91 85.83 102.91 90.76 90.82 90.76 90.82 48.72 95.96 48.72 95.96 48.74 97.77 48.74 97.77 48.72 102.91 48.72 102.91 77.41 97.77 77.41"/>
      </g>
    </g>
  </g>
</svg>