<?xml version="1.0" standalone="no"?>
<!DOCTYPE svg PUBLIC "-//W3C//DTD SVG 20010904//EN"
 "http://www.w3.org/TR/2001/REC-SVG-20010904/DTD/svg10.dtd">
<svg version="1.0" xmlns="http://www.w3.org/2000/svg"
 width="241.000000pt" height="384.000000pt" viewBox="0 0 241.000000 384.000000"
 preserveAspectRatio="xMidYMid meet">

<g transform="translate(0.000000,384.000000) scale(0.100000,-0.100000)"
fill="#000000" stroke="none">
<path d="M1765 3830 l-500 -5 3 -215 c1 -118 7 -908 12 -1755 6 -847 13 -1609
16 -1694 l6 -154 342 7 c366 8 423 14 522 63 61 30 151 118 182 179 49 97 52
133 50 591 l-3 428 -53 3 -53 3 33 22 c18 12 42 37 54 55 l22 32 -5 548 c-3
301 -8 851 -12 1222 l-6 675 -55 0 c-30 1 -280 -2 -555 -5z m140 -1292 c4
-612 5 -1133 3 -1158 l-3 -45 -71 -3 -72 -3 -6 383 c-3 211 -9 733 -12 1161
l-6 777 80 0 80 0 7 -1112z m13 -1810 l-3 -263 -71 -3 -71 -3 -7 38 c-3 21 -6
140 -6 266 l0 227 80 0 80 0 -2 -262z"/>
<path d="M355 3801 c-130 -37 -232 -119 -281 -225 -49 -107 -54 -159 -54 -598
l0 -408 63 0 c61 -1 61 -1 32 -15 -40 -19 -58 -34 -81 -70 -18 -28 -19 -67
-24 -1245 -3 -668 -4 -1218 -2 -1222 2 -5 252 -8 556 -8 l554 0 6 1688 c4 928
7 1785 9 1905 l2 217 -360 -1 c-309 0 -368 -3 -420 -18z m305 -686 l0 -265
-80 0 -80 0 0 246 c0 150 4 253 10 265 9 16 22 19 80 19 l70 0 0 -265z m-8
-1722 c-1 -615 -5 -1137 -8 -1160 l-5 -43 -76 0 -76 0 7 1151 c3 633 9 1155
12 1160 3 5 38 9 77 9 l72 0 -3 -1117z"/>
</g>
</svg>
